<mxfile host="Electron" modified="2024-04-11T08:20:55.962Z" agent="Mozilla/5.0 (Windows NT 10.0; Win64; x64) AppleWebKit/537.36 (KHTML, like Gecko) draw.io/23.1.5 Chrome/120.0.6099.109 Electron/28.1.0 Safari/537.36" etag="qVNllZIRGsZbuu00lvE7" version="23.1.5" type="device">
  <diagram name="Pagina-1" id="Y7BSf2uQXhjuNO748zRW">
    <mxGraphModel dx="2089" dy="629" grid="1" gridSize="10" guides="1" tooltips="1" connect="1" arrows="1" fold="1" page="1" pageScale="1" pageWidth="827" pageHeight="1169" math="0" shadow="0">
      <root>
        <mxCell id="0" />
        <mxCell id="1" parent="0" />
        <mxCell id="nFypYB_9Pbs6PFqrEm1g-1" value="- nominativo? string&lt;br&gt;&lt;div style=&quot;&quot;&gt;&lt;span style=&quot;background-color: initial;&quot;&gt;- codice? string&lt;/span&gt;&lt;/div&gt;&lt;div style=&quot;&quot;&gt;&lt;span style=&quot;background-color: initial;&quot;&gt;- List&amp;lt;Oggetto&amp;gt;? List&amp;lt;Oggetto&amp;gt;&lt;/span&gt;&lt;/div&gt;&lt;div style=&quot;&quot;&gt;&lt;span style=&quot;background-color: initial;&quot;&gt;- List&amp;lt;Proposta&amp;gt;? List&amp;lt;Proposta&amp;gt;&lt;/span&gt;&lt;/div&gt;" style="rounded=0;whiteSpace=wrap;html=1;align=left;" parent="1" vertex="1">
          <mxGeometry x="234" y="120" width="190" height="80" as="geometry" />
        </mxCell>
        <mxCell id="nFypYB_9Pbs6PFqrEm1g-2" value="Persona" style="rounded=0;whiteSpace=wrap;html=1;" parent="1" vertex="1">
          <mxGeometry x="234" y="90" width="190" height="30" as="geometry" />
        </mxCell>
        <mxCell id="nFypYB_9Pbs6PFqrEm1g-4" value="+ aggiungiOggetto()&lt;br&gt;+ rimuoviOggetto()&lt;br&gt;+ gestisciProposta&lt;br&gt;+ recuperaOggetto()" style="rounded=0;whiteSpace=wrap;html=1;align=left;" parent="1" vertex="1">
          <mxGeometry x="234" y="200" width="190" height="100" as="geometry" />
        </mxCell>
        <mxCell id="nFypYB_9Pbs6PFqrEm1g-5" value="- codice? string&lt;br&gt;- nome? string&lt;br&gt;- descrizione? string&lt;br&gt;- proprietario? Persona" style="rounded=0;whiteSpace=wrap;html=1;align=left;" parent="1" vertex="1">
          <mxGeometry x="380" y="560" width="170" height="60" as="geometry" />
        </mxCell>
        <mxCell id="nFypYB_9Pbs6PFqrEm1g-23" style="edgeStyle=orthogonalEdgeStyle;rounded=0;orthogonalLoop=1;jettySize=auto;html=1;exitX=0.5;exitY=0;exitDx=0;exitDy=0;endArrow=diamondThin;endFill=0;entryX=0.5;entryY=1;entryDx=0;entryDy=0;" parent="1" source="nFypYB_9Pbs6PFqrEm1g-6" target="nFypYB_9Pbs6PFqrEm1g-4" edge="1">
          <mxGeometry relative="1" as="geometry">
            <mxPoint x="330" y="350" as="targetPoint" />
          </mxGeometry>
        </mxCell>
        <mxCell id="nFypYB_9Pbs6PFqrEm1g-6" value="Oggetto" style="rounded=0;whiteSpace=wrap;html=1;" parent="1" vertex="1">
          <mxGeometry x="380" y="530" width="170" height="30" as="geometry" />
        </mxCell>
        <mxCell id="69dvG_GSUwhHeMlY0y9a-3" style="edgeStyle=orthogonalEdgeStyle;rounded=0;orthogonalLoop=1;jettySize=auto;html=1;exitX=1;exitY=0.5;exitDx=0;exitDy=0;entryX=0;entryY=0.5;entryDx=0;entryDy=0;endArrow=block;endFill=0;" edge="1" parent="1" source="nFypYB_9Pbs6PFqrEm1g-13" target="nFypYB_9Pbs6PFqrEm1g-16">
          <mxGeometry relative="1" as="geometry" />
        </mxCell>
        <mxCell id="nFypYB_9Pbs6PFqrEm1g-13" value="- codice? string&lt;br&gt;- data? Date" style="rounded=0;whiteSpace=wrap;html=1;align=left;" parent="1" vertex="1">
          <mxGeometry x="-300" y="570" width="170" height="80" as="geometry" />
        </mxCell>
        <mxCell id="nFypYB_9Pbs6PFqrEm1g-14" value="Transazione" style="rounded=0;whiteSpace=wrap;html=1;" parent="1" vertex="1">
          <mxGeometry x="-300" y="540" width="170" height="30" as="geometry" />
        </mxCell>
        <mxCell id="nFypYB_9Pbs6PFqrEm1g-15" value="+ recuperaTransazioni()" style="rounded=0;whiteSpace=wrap;html=1;align=left;" parent="1" vertex="1">
          <mxGeometry x="-300" y="650" width="170" height="60" as="geometry" />
        </mxCell>
        <mxCell id="69dvG_GSUwhHeMlY0y9a-1" style="edgeStyle=orthogonalEdgeStyle;rounded=0;orthogonalLoop=1;jettySize=auto;html=1;exitX=1;exitY=0.25;exitDx=0;exitDy=0;" edge="1" parent="1" source="nFypYB_9Pbs6PFqrEm1g-16">
          <mxGeometry relative="1" as="geometry">
            <mxPoint x="380" y="585" as="targetPoint" />
            <Array as="points">
              <mxPoint x="380" y="585" />
            </Array>
          </mxGeometry>
        </mxCell>
        <mxCell id="nFypYB_9Pbs6PFqrEm1g-16" value="- codice? string&lt;br&gt;- offerente? Persona&lt;br&gt;- ricevente? Persona&lt;br&gt;- oggetto? Oggetto&lt;br&gt;- stato bool&lt;br&gt;- transazione? Transazione" style="rounded=0;whiteSpace=wrap;html=1;align=left;" parent="1" vertex="1">
          <mxGeometry x="50" y="560" width="170" height="100" as="geometry" />
        </mxCell>
        <mxCell id="69dvG_GSUwhHeMlY0y9a-2" style="edgeStyle=orthogonalEdgeStyle;rounded=0;orthogonalLoop=1;jettySize=auto;html=1;exitX=0.5;exitY=0;exitDx=0;exitDy=0;entryX=0.25;entryY=1;entryDx=0;entryDy=0;endArrow=diamondThin;endFill=1;" edge="1" parent="1" source="nFypYB_9Pbs6PFqrEm1g-17" target="nFypYB_9Pbs6PFqrEm1g-4">
          <mxGeometry relative="1" as="geometry" />
        </mxCell>
        <mxCell id="nFypYB_9Pbs6PFqrEm1g-17" value="Proposta&amp;nbsp;" style="rounded=0;whiteSpace=wrap;html=1;" parent="1" vertex="1">
          <mxGeometry x="50" y="530" width="170" height="30" as="geometry" />
        </mxCell>
        <mxCell id="nFypYB_9Pbs6PFqrEm1g-18" value="+ registraTransazione()" style="rounded=0;whiteSpace=wrap;html=1;align=left;" parent="1" vertex="1">
          <mxGeometry x="50" y="660" width="170" height="60" as="geometry" />
        </mxCell>
      </root>
    </mxGraphModel>
  </diagram>
</mxfile>
